<svg width="20" height="20" viewBox="0 0 20 20" fill="none" xmlns="http://www.w3.org/2000/svg">
<path d="M6.25037 10.5366L13.3019 16.7186C13.3832 16.7903 13.4816 16.8396 13.5876 16.8618C13.6937 16.8839 13.8037 16.8781 13.9068 16.845C14.0099 16.8118 14.1026 16.7524 14.1759 16.6726C14.2491 16.5928 14.3004 16.4953 14.3246 16.3897L17.5004 2.59521C17.5035 2.58138 17.5027 2.56696 17.4983 2.55351C17.4938 2.54006 17.4858 2.52807 17.475 2.51884C17.4643 2.50961 17.4512 2.50348 17.4372 2.5011C17.4232 2.49873 17.4089 2.5002 17.3957 2.50537L1.56287 8.70146C1.46458 8.73929 1.38121 8.80798 1.32528 8.89722C1.26935 8.98646 1.24388 9.09143 1.25268 9.19638C1.26149 9.30133 1.30409 9.4006 1.37411 9.47927C1.44413 9.55794 1.53777 9.61178 1.64099 9.63271L6.25037 10.5366Z" stroke="white" stroke-width="1.5" stroke-linecap="round" stroke-linejoin="round"/>
<path d="M6.25 10.5365L17.4539 2.50684" stroke="white" stroke-width="1.5" stroke-linecap="round" stroke-linejoin="round"/>
<path d="M9.71641 13.5765L7.325 16.0577C7.23859 16.1474 7.12737 16.2092 7.00561 16.2352C6.88384 16.2612 6.75708 16.2503 6.64157 16.2038C6.52607 16.1573 6.42709 16.0773 6.35732 15.9742C6.28755 15.871 6.25018 15.7494 6.25 15.6249V10.5366" stroke="white" stroke-width="1.5" stroke-linecap="round" stroke-linejoin="round"/>
</svg>
